<svg xmlns="http://www.w3.org/2000/svg" xmlns:xlink="http://www.w3.org/1999/xlink" version="1.1" width="256" height="256" viewBox="0 0 256 256" xml:space="preserve">
<g style="stroke: none; stroke-width: 0; stroke-dasharray: none; stroke-linecap: butt; stroke-linejoin: miter; stroke-miterlimit: 10; fill: none; fill-rule: nonzero; opacity: 1;" transform="translate(1.4065934065934016 1.4065934065934016) scale(2.81 2.81)">
	<circle cx="45" cy="45" r="45" style="stroke: none; stroke-width: 1; stroke-dasharray: none; stroke-linecap: butt; stroke-linejoin: miter; stroke-miterlimit: 10; fill: rgb(51,66,174); fill-rule: nonzero; opacity: 1;" transform="  matrix(1 0 0 1 0 0) "/>
	<path d="M 5.555 66.664 C 13.21 80.573 28.002 90 45 90 c 15.253 0 28.724 -7.596 36.862 -19.204 c -2.893 -1.929 -6.366 -3.058 -10.104 -3.058 c -0.733 0 -1.452 0.055 -2.162 0.14 c -4.323 -9.026 -13.516 -15.276 -24.192 -15.276 c -8.304 0 -15.725 3.774 -20.648 9.698 c -1.936 -0.7 -4.014 -1.101 -6.191 -1.101 C 13.468 61.199 8.865 63.294 5.555 66.664 z" style="stroke: none; stroke-width: 1; stroke-dasharray: none; stroke-linecap: butt; stroke-linejoin: miter; stroke-miterlimit: 10; fill: rgb(61,78,198); fill-rule: nonzero; opacity: 1;" transform=" matrix(1 0 0 1 0 0) " stroke-linecap="round"/>
	<path d="M 39.136 14.251 l -0.992 -3.358 c -0.047 -0.123 -0.103 -0.243 -0.166 -0.359 c -0.065 -0.118 -0.139 -0.232 -0.22 -0.34 c -0.081 -0.108 -0.17 -0.211 -0.265 -0.306 c -0.095 -0.095 -0.198 -0.185 -0.306 -0.266 c -0.107 -0.081 -0.222 -0.155 -0.34 -0.22 c -0.115 -0.063 -0.236 -0.119 -0.359 -0.166 l -3.358 -0.992 l 3.358 -0.992 c 0.123 -0.047 0.243 -0.103 0.359 -0.166 c 0.118 -0.065 0.233 -0.139 0.34 -0.22 c 0.108 -0.081 0.211 -0.17 0.306 -0.266 c 0.095 -0.095 0.184 -0.198 0.265 -0.306 c 0.081 -0.108 0.155 -0.222 0.22 -0.34 c 0.063 -0.115 0.119 -0.236 0.166 -0.359 l 0.992 -3.357 l 0.992 3.357 c 0.047 0.123 0.103 0.244 0.166 0.358 c 0.065 0.119 0.139 0.233 0.22 0.34 c 0.081 0.108 0.17 0.211 0.266 0.306 c 0.095 0.095 0.198 0.184 0.306 0.265 c 0.108 0.081 0.222 0.155 0.34 0.22 c 0.115 0.063 0.236 0.119 0.359 0.166 l 3.358 0.992 l -3.357 0.992 c -0.123 0.047 -0.244 0.103 -0.358 0.166 c -0.118 0.065 -0.233 0.139 -0.34 0.22 c -0.108 0.081 -0.21 0.17 -0.306 0.266 c -0.095 0.095 -0.185 0.198 -0.265 0.306 c -0.081 0.108 -0.155 0.222 -0.22 0.34 c -0.063 0.115 -0.119 0.235 -0.166 0.359 L 39.136 14.251 z" style="stroke: none; stroke-width: 1; stroke-dasharray: none; stroke-linecap: butt; stroke-linejoin: miter; stroke-miterlimit: 10; fill: rgb(113,126,214); fill-rule: nonzero; opacity: 1;" transform=" matrix(1 0 0 1 0 0) " stroke-linecap="round"/>
	<path d="M 70.129 26.502 l -0.94 -3.182 c -0.045 -0.116 -0.097 -0.231 -0.158 -0.34 c -0.061 -0.112 -0.132 -0.22 -0.208 -0.323 c -0.077 -0.102 -0.161 -0.2 -0.252 -0.29 c -0.09 -0.09 -0.188 -0.175 -0.29 -0.252 c -0.102 -0.077 -0.21 -0.146 -0.322 -0.208 c -0.109 -0.06 -0.223 -0.113 -0.34 -0.158 l -3.182 -0.94 l 3.182 -0.94 c 0.116 -0.044 0.23 -0.097 0.34 -0.158 c 0.112 -0.062 0.22 -0.132 0.322 -0.208 c 0.102 -0.077 0.2 -0.161 0.29 -0.252 c 0.09 -0.09 0.175 -0.188 0.252 -0.29 c 0.077 -0.102 0.147 -0.21 0.208 -0.322 c 0.06 -0.109 0.113 -0.224 0.157 -0.34 l 0.94 -3.182 l 0.94 3.182 c 0.045 0.117 0.098 0.231 0.158 0.34 c 0.062 0.112 0.132 0.221 0.208 0.323 c 0.077 0.102 0.161 0.2 0.252 0.29 c 0.09 0.09 0.188 0.175 0.29 0.252 c 0.102 0.077 0.211 0.147 0.322 0.208 c 0.109 0.06 0.223 0.113 0.34 0.158 l 3.182 0.94 l -3.182 0.94 c -0.117 0.045 -0.231 0.098 -0.34 0.157 c -0.112 0.062 -0.221 0.132 -0.323 0.208 c -0.102 0.077 -0.199 0.161 -0.29 0.252 c -0.09 0.09 -0.175 0.188 -0.252 0.29 c -0.077 0.102 -0.147 0.21 -0.208 0.322 c -0.06 0.109 -0.113 0.223 -0.158 0.34 L 70.129 26.502 z" style="stroke: none; stroke-width: 1; stroke-dasharray: none; stroke-linecap: butt; stroke-linejoin: miter; stroke-miterlimit: 10; fill: rgb(113,126,214); fill-rule: nonzero; opacity: 1;" transform=" matrix(1 0 0 1 0 0) " stroke-linecap="round"/>
	<path d="M 11.987 56.362 l -1.173 -3.97 c -0.056 -0.145 -0.122 -0.288 -0.197 -0.424 c -0.077 -0.139 -0.164 -0.275 -0.26 -0.402 c -0.096 -0.127 -0.201 -0.249 -0.314 -0.362 c -0.113 -0.113 -0.234 -0.218 -0.362 -0.314 c -0.127 -0.095 -0.262 -0.183 -0.402 -0.26 c -0.136 -0.075 -0.279 -0.141 -0.424 -0.197 l -3.97 -1.173 l 3.97 -1.173 c 0.145 -0.055 0.288 -0.122 0.424 -0.197 c 0.14 -0.077 0.275 -0.164 0.402 -0.26 c 0.127 -0.096 0.249 -0.201 0.362 -0.314 c 0.112 -0.113 0.218 -0.234 0.314 -0.362 c 0.095 -0.127 0.183 -0.263 0.26 -0.402 c 0.075 -0.136 0.141 -0.279 0.196 -0.424 l 1.173 -3.97 l 1.173 3.97 c 0.056 0.146 0.122 0.288 0.197 0.424 c 0.077 0.14 0.164 0.276 0.26 0.402 c 0.096 0.127 0.201 0.249 0.314 0.362 c 0.112 0.112 0.234 0.218 0.362 0.314 c 0.128 0.096 0.263 0.183 0.402 0.26 c 0.136 0.075 0.279 0.141 0.424 0.197 l 3.97 1.173 l -3.97 1.173 c -0.146 0.056 -0.288 0.122 -0.424 0.196 c -0.14 0.077 -0.275 0.164 -0.403 0.26 c -0.127 0.095 -0.249 0.201 -0.362 0.314 c -0.113 0.113 -0.218 0.234 -0.314 0.362 c -0.096 0.127 -0.183 0.262 -0.26 0.402 c -0.075 0.136 -0.141 0.278 -0.197 0.424 L 11.987 56.362 z" style="stroke: none; stroke-width: 1; stroke-dasharray: none; stroke-linecap: butt; stroke-linejoin: miter; stroke-miterlimit: 10; fill: rgb(113,126,214); fill-rule: nonzero; opacity: 1;" transform=" matrix(1 0 0 1 0 0) " stroke-linecap="round"/>
	<circle cx="80.22" cy="56.85" r="1.64" style="stroke: none; stroke-width: 1; stroke-dasharray: none; stroke-linecap: butt; stroke-linejoin: miter; stroke-miterlimit: 10; fill: rgb(61,78,198); fill-rule: nonzero; opacity: 1;" transform="  matrix(1 0 0 1 0 0) "/>
	<circle cx="54.44" cy="43.36" r="1.64" style="stroke: none; stroke-width: 1; stroke-dasharray: none; stroke-linecap: butt; stroke-linejoin: miter; stroke-miterlimit: 10; fill: rgb(61,78,198); fill-rule: nonzero; opacity: 1;" transform="  matrix(1 0 0 1 0 0) "/>
	<circle cx="7.1899999999999995" cy="34.87" r="1.64" style="stroke: none; stroke-width: 1; stroke-dasharray: none; stroke-linecap: butt; stroke-linejoin: miter; stroke-miterlimit: 10; fill: rgb(61,78,198); fill-rule: nonzero; opacity: 1;" transform="  matrix(1 0 0 1 0 0) "/>
	<circle cx="57.28" cy="8.25" r="1.64" style="stroke: none; stroke-width: 1; stroke-dasharray: none; stroke-linecap: butt; stroke-linejoin: miter; stroke-miterlimit: 10; fill: rgb(61,78,198); fill-rule: nonzero; opacity: 1;" transform="  matrix(1 0 0 1 0 0) "/>
	<circle cx="24.86" cy="17.61" r="1.64" style="stroke: none; stroke-width: 1; stroke-dasharray: none; stroke-linecap: butt; stroke-linejoin: miter; stroke-miterlimit: 10; fill: rgb(61,78,198); fill-rule: nonzero; opacity: 1;" transform="  matrix(1 0 0 1 0 0) "/>
	<path d="M 69.033 64.344 c -1.545 0 -3.456 -0.01 -3.813 -4.853 c 9.191 -5.995 14.086 -15.339 12.458 -21.911 c -0.509 -2.052 -2.901 -8.17 -13.172 -7.577 c -1.575 -4.28 -5.681 -7.347 -10.501 -7.347 c -2.983 0 -5.69 1.18 -7.699 3.087 c -2.009 -1.908 -4.716 -3.087 -7.698 -3.087 c -2.982 0 -5.689 1.179 -7.698 3.087 c -2.009 -1.908 -4.716 -3.087 -7.698 -3.087 c -6.175 0 -11.199 5.024 -11.199 11.199 c 0 1.933 1.567 3.5 3.5 3.5 s 3.5 -1.567 3.5 -3.5 c 0 -2.315 1.883 -4.199 4.199 -4.199 c 2.315 0 4.198 1.883 4.198 4.199 v 25.548 c 0 1.933 1.567 3.5 3.5 3.5 s 3.5 -1.567 3.5 -3.5 V 33.854 c 0 -2.315 1.883 -4.199 4.198 -4.199 s 4.198 1.884 4.198 4.199 v 25.548 c 0 1.933 1.567 3.5 3.5 3.5 c 1.933 0 3.5 -1.567 3.5 -3.5 V 33.854 c 0 -2.315 1.884 -4.199 4.199 -4.199 c 2.314 0 4.198 1.883 4.198 4.199 V 55.41 c -1.154 0.563 -2.367 1.067 -3.647 1.482 c -1.839 0.596 -2.847 2.569 -2.25 4.408 c 0.479 1.48 1.852 2.422 3.328 2.422 c 0.357 0 0.722 -0.056 1.08 -0.172 c 0.661 -0.214 1.304 -0.451 1.94 -0.697 c 1.634 7.294 7.037 8.491 10.38 8.491 c 1.933 0 3.5 -1.567 3.5 -3.5 S 70.966 64.344 69.033 64.344 z M 65.203 36.975 c 2.429 -0.111 5.174 0.241 5.681 2.289 c 0.675 2.723 -1.466 7.317 -5.681 11.305 V 36.975 z" style="stroke: none; stroke-width: 1; stroke-dasharray: none; stroke-linecap: butt; stroke-linejoin: miter; stroke-miterlimit: 10; fill: rgb(46,225,255); fill-rule: nonzero; opacity: 1;" transform=" matrix(1 0 0 1 0 0) " stroke-linecap="round"/>
</g>
</svg>