<svg xmlns="http://www.w3.org/2000/svg" xmlns:xlink="http://www.w3.org/1999/xlink" version="1.1" width="256" height="256" viewBox="0 0 256 256" xml:space="preserve">
<g style="stroke: none; stroke-width: 0; stroke-dasharray: none; stroke-linecap: butt; stroke-linejoin: miter; stroke-miterlimit: 10; fill: none; fill-rule: nonzero; opacity: 1;" transform="translate(1.4065934065934016 1.4065934065934016) scale(2.81 2.81)">
	<circle cx="45" cy="45" r="45" style="stroke: none; stroke-width: 1; stroke-dasharray: none; stroke-linecap: butt; stroke-linejoin: miter; stroke-miterlimit: 10; fill: rgb(51,66,174); fill-rule: nonzero; opacity: 1;" transform="  matrix(1 0 0 1 0 0) "/>
	<path d="M 5.555 66.664 C 13.21 80.573 28.002 90 45 90 c 15.253 0 28.724 -7.596 36.862 -19.204 c -2.893 -1.929 -6.366 -3.058 -10.104 -3.058 c -0.733 0 -1.452 0.055 -2.162 0.14 c -4.323 -9.026 -13.516 -15.276 -24.192 -15.276 c -8.304 0 -15.725 3.774 -20.648 9.698 c -1.936 -0.7 -4.014 -1.101 -6.191 -1.101 C 13.468 61.199 8.865 63.294 5.555 66.664 z" style="stroke: none; stroke-width: 1; stroke-dasharray: none; stroke-linecap: butt; stroke-linejoin: miter; stroke-miterlimit: 10; fill: rgb(61,78,198); fill-rule: nonzero; opacity: 1;" transform=" matrix(1 0 0 1 0 0) " stroke-linecap="round"/>
	<path d="M 39.136 14.251 l -0.992 -3.358 c -0.047 -0.123 -0.103 -0.243 -0.166 -0.359 c -0.065 -0.118 -0.139 -0.232 -0.22 -0.34 c -0.081 -0.108 -0.17 -0.211 -0.265 -0.306 c -0.095 -0.095 -0.198 -0.185 -0.306 -0.266 c -0.107 -0.081 -0.222 -0.155 -0.34 -0.22 c -0.115 -0.063 -0.236 -0.119 -0.359 -0.166 l -3.358 -0.992 l 3.358 -0.992 c 0.123 -0.047 0.243 -0.103 0.359 -0.166 c 0.118 -0.065 0.233 -0.139 0.34 -0.22 c 0.108 -0.081 0.211 -0.17 0.306 -0.266 c 0.095 -0.095 0.184 -0.198 0.265 -0.306 c 0.081 -0.108 0.155 -0.222 0.22 -0.34 c 0.063 -0.115 0.119 -0.236 0.166 -0.359 l 0.992 -3.357 l 0.992 3.357 c 0.047 0.123 0.103 0.244 0.166 0.358 c 0.065 0.119 0.139 0.233 0.22 0.34 c 0.081 0.108 0.17 0.211 0.266 0.306 c 0.095 0.095 0.198 0.184 0.306 0.265 c 0.108 0.081 0.222 0.155 0.34 0.22 c 0.115 0.063 0.236 0.119 0.359 0.166 l 3.358 0.992 l -3.357 0.992 c -0.123 0.047 -0.244 0.103 -0.358 0.166 c -0.118 0.065 -0.233 0.139 -0.34 0.22 c -0.108 0.081 -0.21 0.17 -0.306 0.266 c -0.095 0.095 -0.185 0.198 -0.265 0.306 c -0.081 0.108 -0.155 0.222 -0.22 0.34 c -0.063 0.115 -0.119 0.235 -0.166 0.359 L 39.136 14.251 z" style="stroke: none; stroke-width: 1; stroke-dasharray: none; stroke-linecap: butt; stroke-linejoin: miter; stroke-miterlimit: 10; fill: rgb(113,126,214); fill-rule: nonzero; opacity: 1;" transform=" matrix(1 0 0 1 0 0) " stroke-linecap="round"/>
	<path d="M 79.069 45.45 l -1.085 -3.672 c -0.051 -0.134 -0.112 -0.266 -0.182 -0.392 c -0.071 -0.129 -0.152 -0.254 -0.24 -0.372 c -0.089 -0.118 -0.186 -0.23 -0.29 -0.334 c -0.104 -0.104 -0.217 -0.202 -0.335 -0.29 c -0.117 -0.088 -0.243 -0.169 -0.372 -0.24 c -0.126 -0.069 -0.258 -0.13 -0.392 -0.182 L 72.5 38.881 l 3.672 -1.085 c 0.134 -0.051 0.266 -0.112 0.392 -0.182 c 0.129 -0.071 0.254 -0.152 0.372 -0.24 c 0.118 -0.089 0.23 -0.186 0.335 -0.29 c 0.104 -0.104 0.202 -0.217 0.29 -0.335 c 0.088 -0.118 0.169 -0.243 0.24 -0.372 c 0.069 -0.126 0.131 -0.258 0.182 -0.392 l 1.085 -3.672 l 1.085 3.672 c 0.052 0.135 0.113 0.267 0.182 0.392 c 0.071 0.13 0.152 0.255 0.24 0.372 c 0.088 0.118 0.186 0.23 0.291 0.335 c 0.104 0.104 0.216 0.202 0.335 0.29 c 0.118 0.088 0.243 0.169 0.372 0.24 c 0.126 0.069 0.258 0.131 0.392 0.182 l 3.672 1.085 l -3.672 1.085 c -0.135 0.052 -0.267 0.113 -0.392 0.182 c -0.129 0.071 -0.255 0.152 -0.372 0.241 c -0.118 0.088 -0.23 0.186 -0.335 0.29 c -0.104 0.104 -0.202 0.217 -0.29 0.335 c -0.088 0.118 -0.169 0.243 -0.24 0.372 c -0.069 0.126 -0.131 0.257 -0.182 0.392 L 79.069 45.45 z" style="stroke: none; stroke-width: 1; stroke-dasharray: none; stroke-linecap: butt; stroke-linejoin: miter; stroke-miterlimit: 10; fill: rgb(113,126,214); fill-rule: nonzero; opacity: 1;" transform=" matrix(1 0 0 1 0 0) " stroke-linecap="round"/>
	<path d="M 11.987 56.362 l -1.173 -3.97 c -0.056 -0.145 -0.122 -0.288 -0.197 -0.424 c -0.077 -0.139 -0.164 -0.275 -0.26 -0.402 c -0.096 -0.127 -0.201 -0.249 -0.314 -0.362 c -0.113 -0.113 -0.234 -0.218 -0.362 -0.314 c -0.127 -0.095 -0.262 -0.183 -0.402 -0.26 c -0.136 -0.075 -0.279 -0.141 -0.424 -0.197 l -3.97 -1.173 l 3.97 -1.173 c 0.145 -0.055 0.288 -0.122 0.424 -0.197 c 0.14 -0.077 0.275 -0.164 0.402 -0.26 c 0.127 -0.096 0.249 -0.201 0.362 -0.314 c 0.112 -0.113 0.218 -0.234 0.314 -0.362 c 0.095 -0.127 0.183 -0.263 0.26 -0.402 c 0.075 -0.136 0.141 -0.279 0.196 -0.424 l 1.173 -3.97 l 1.173 3.97 c 0.056 0.146 0.122 0.288 0.197 0.424 c 0.077 0.14 0.164 0.276 0.26 0.402 c 0.096 0.127 0.201 0.249 0.314 0.362 c 0.112 0.112 0.234 0.218 0.362 0.314 c 0.128 0.096 0.263 0.183 0.402 0.26 c 0.136 0.075 0.279 0.141 0.424 0.197 l 3.97 1.173 l -3.97 1.173 c -0.146 0.056 -0.288 0.122 -0.424 0.196 c -0.14 0.077 -0.275 0.164 -0.403 0.26 c -0.127 0.095 -0.249 0.201 -0.362 0.314 c -0.113 0.113 -0.218 0.234 -0.314 0.362 c -0.096 0.127 -0.183 0.262 -0.26 0.402 c -0.075 0.136 -0.141 0.278 -0.197 0.424 L 11.987 56.362 z" style="stroke: none; stroke-width: 1; stroke-dasharray: none; stroke-linecap: butt; stroke-linejoin: miter; stroke-miterlimit: 10; fill: rgb(113,126,214); fill-rule: nonzero; opacity: 1;" transform=" matrix(1 0 0 1 0 0) " stroke-linecap="round"/>
	<circle cx="80.22" cy="56.85" r="1.64" style="stroke: none; stroke-width: 1; stroke-dasharray: none; stroke-linecap: butt; stroke-linejoin: miter; stroke-miterlimit: 10; fill: rgb(61,78,198); fill-rule: nonzero; opacity: 1;" transform="  matrix(1 0 0 1 0 0) "/>
	<circle cx="43.71" cy="29.36" r="1.64" style="stroke: none; stroke-width: 1; stroke-dasharray: none; stroke-linecap: butt; stroke-linejoin: miter; stroke-miterlimit: 10; fill: rgb(61,78,198); fill-rule: nonzero; opacity: 1;" transform="  matrix(1 0 0 1 0 0) "/>
	<circle cx="7.1899999999999995" cy="34.87" r="1.64" style="stroke: none; stroke-width: 1; stroke-dasharray: none; stroke-linecap: butt; stroke-linejoin: miter; stroke-miterlimit: 10; fill: rgb(61,78,198); fill-rule: nonzero; opacity: 1;" transform="  matrix(1 0 0 1 0 0) "/>
	<circle cx="57.28" cy="8.25" r="1.64" style="stroke: none; stroke-width: 1; stroke-dasharray: none; stroke-linecap: butt; stroke-linejoin: miter; stroke-miterlimit: 10; fill: rgb(61,78,198); fill-rule: nonzero; opacity: 1;" transform="  matrix(1 0 0 1 0 0) "/>
	<circle cx="19.28" cy="19.25" r="1.64" style="stroke: none; stroke-width: 1; stroke-dasharray: none; stroke-linecap: butt; stroke-linejoin: miter; stroke-miterlimit: 10; fill: rgb(61,78,198); fill-rule: nonzero; opacity: 1;" transform="  matrix(1 0 0 1 0 0) "/>
	<path d="M 67.131 44.377 c 0 -1.933 -1.567 -3.5 -3.5 -3.5 h -7.217 c 0.873 -6.083 3.675 -12.179 8.41 -18.345 c 1.177 -1.533 0.889 -3.73 -0.645 -4.908 c -1.535 -1.18 -3.731 -0.889 -4.908 0.644 c -5.762 7.504 -9.077 15.053 -9.964 22.608 h -8.616 c -0.887 -7.556 -4.201 -15.104 -9.964 -22.608 c -1.178 -1.533 -3.374 -1.821 -4.908 -0.644 c -1.533 1.177 -1.821 3.375 -0.644 4.908 c 4.735 6.166 7.537 12.262 8.41 18.345 h -7.217 c -1.933 0 -3.5 1.567 -3.5 3.5 s 1.567 3.5 3.5 3.5 h 7.368 c -0.651 6.497 -3.503 13.003 -8.561 19.59 c -1.177 1.533 -0.889 3.73 0.644 4.908 c 0.636 0.487 1.385 0.724 2.129 0.724 c 1.05 0 2.089 -0.471 2.778 -1.368 c 6.079 -7.916 9.437 -15.882 10.09 -23.854 h 8.364 c 0.653 7.971 4.011 15.937 10.09 23.854 c 0.689 0.897 1.729 1.368 2.779 1.368 c 0.743 0 1.493 -0.236 2.129 -0.724 c 1.533 -1.178 1.821 -3.375 0.645 -4.908 c -5.058 -6.587 -7.911 -13.093 -8.562 -19.59 h 7.368 C 65.563 47.877 67.131 46.311 67.131 44.377 z" style="stroke: none; stroke-width: 1; stroke-dasharray: none; stroke-linecap: butt; stroke-linejoin: miter; stroke-miterlimit: 10; fill: rgb(86,209,92); fill-rule: nonzero; opacity: 1;" transform=" matrix(1 0 0 1 0 0) " stroke-linecap="round"/>
</g>
</svg>